<svg width="5607" height="824" viewBox="0 0 5607 824" fill="none" xmlns="http://www.w3.org/2000/svg">
<g clip-path="url(#clip0_1_2)">
<rect x="67.8812" y="57.1049" width="620" height="701.555" rx="19" transform="rotate(-0.0193868 67.8812 57.1049)" fill="white"/>
<path d="M1280.53 465.486V633H948.719V546.031H996.403V326.88H948.719V239.911H1280.53V396.307H1217.28L1193.57 326.88H1122.9V391.118H1186.15V455.851H1122.9V546.031H1193.57L1217.28 465.486H1280.53ZM1464.6 546.031V633H1291.16V546.031H1330.2L1397.89 326.88H1346.25V239.911H1591.1L1678.81 546.031H1717.6V633H1496.47V546.031H1528.59L1517.97 504.029H1428.78L1417.66 546.031H1464.6ZM1506.11 444.238L1477.45 323.915L1441.38 444.238H1506.11ZM1921.93 640.165C1908.42 640.165 1896.89 639.177 1887.34 637.2C1877.79 635.224 1868.89 632.012 1860.66 627.564C1852.58 623.117 1843.94 617.352 1834.71 610.27L1826.07 633H1746.26V512.677H1825.57C1830.68 526.513 1838.5 536.313 1849.04 542.078C1859.75 547.678 1872.84 550.479 1888.33 550.479C1897.88 550.479 1906.03 548.584 1912.79 544.796C1919.54 540.843 1922.92 535.654 1922.92 529.23C1922.92 521.16 1919.46 515.147 1912.54 511.194C1905.62 507.076 1895.9 503.288 1883.39 499.829C1867.41 495.547 1852.91 491.017 1839.9 486.24C1827.05 481.464 1815.52 476.522 1805.31 471.416C1784.89 461.204 1768.42 446.709 1755.9 427.932C1743.38 409.154 1737.12 384.2 1737.12 353.069C1737.12 329.186 1742.31 308.103 1752.69 289.819C1762.9 271.701 1777.56 257.618 1796.66 247.57C1815.94 237.358 1838.58 232.252 1864.61 232.252C1896.4 232.252 1921.52 242.382 1939.96 262.642L1952.57 239.417H2023.47V357.27H1947.62C1940.54 342.445 1932.72 332.151 1924.15 326.386C1915.59 320.621 1903.81 317.738 1888.82 317.738C1877.46 317.738 1868.64 319.797 1862.38 323.915C1856.13 327.868 1853 333.386 1853 340.469C1853 348.375 1857.53 354.387 1866.58 358.505C1875.48 362.787 1888.16 366.741 1904.63 370.364C1933.46 376.953 1958.33 385.271 1979.25 395.318C1999.67 405.366 2015.98 419.614 2028.17 438.062C2040.52 456.345 2046.7 479.981 2046.7 508.971C2046.7 533.513 2041.59 555.749 2031.38 575.68C2021 595.61 2006.26 611.34 1987.16 622.87C1968.21 634.4 1946.47 640.165 1921.93 640.165ZM2365.17 544.055V633H2145.03V544.055H2185.55V326.88H2150.72L2140.09 394.577H2070.67V239.911H2440.53V394.577H2371.35L2360.73 326.88H2324.65V544.055H2365.17ZM2814.84 465.486V633H2483.03V546.031H2530.71V326.88H2483.03V239.911H2814.84V396.307H2751.59L2727.87 326.88H2657.21V391.118H2720.46V455.851H2657.21V546.031H2727.87L2751.59 465.486H2814.84ZM3054.75 633H2849.43V546.031H2888.96V326.88H2849.43V239.911H3101.94C3142.79 239.911 3172.76 248.147 3191.87 264.618C3211.14 281.09 3220.78 308.432 3220.78 346.646C3220.78 372.176 3213.61 391.859 3199.28 405.695C3184.95 419.531 3164.61 428.838 3138.26 433.614C3161.97 437.403 3179.02 446.297 3189.4 460.298C3199.94 474.299 3205.21 491.758 3205.21 512.677V544.549H3260.31V633H3180.75C3163.79 633 3150.12 632.424 3139.74 631.271C3129.36 629.953 3121.13 626.988 3115.03 622.376C3109.1 617.599 3104.16 610.187 3100.21 600.14C3094.28 584.986 3091.31 559.702 3091.31 524.289C3091.31 504.029 3088.02 489.04 3081.43 479.322C3074.84 469.439 3062.82 464.498 3045.36 464.498H3015.46V546.031H3054.75V633ZM3015.46 326.88V408.413H3049.31C3067.26 408.413 3080.61 405.201 3089.34 398.777C3098.07 392.354 3102.43 381.071 3102.43 364.929C3102.43 353.069 3097.9 343.763 3088.84 337.01C3079.95 330.257 3068.42 326.88 3054.25 326.88H3015.46ZM3434.74 544.549V633H3277.36V544.549H3317.38V326.386H3278.34V239.417H3459.94L3582.98 473.146V326.88H3543.45V239.911H3700.83V326.88H3661.8V633H3512.07L3395.21 415.825V544.549H3434.74ZM4083.55 633H3861.92V546.031H3909.61V326.88H3868.6V239.417H4069.46C4102.08 239.417 4129.91 242.052 4152.97 247.323C4175.54 252.759 4193.49 263.136 4206.83 278.454C4220.18 293.608 4226.85 315.103 4226.85 342.939C4226.85 362.54 4221.17 379.588 4209.8 394.083C4198.43 408.578 4184.02 419.037 4166.56 425.461C4189.46 435.344 4206.34 448.109 4217.21 463.757C4228.25 479.405 4233.77 500.9 4233.77 528.242C4233.77 561.679 4220.67 587.539 4194.48 605.822C4168.46 623.941 4131.48 633 4083.55 633ZM4036.11 326.88V398.283H4049.7C4068.48 398.283 4082.31 395.648 4091.21 390.377C4100.27 385.106 4104.79 375.223 4104.79 360.729C4104.79 350.681 4101.67 342.528 4095.41 336.269C4089.15 330.009 4080.99 326.88 4070.95 326.88H4036.11ZM4036.11 463.016V546.031H4045C4064.93 546.031 4080.25 543.231 4090.96 537.631C4101.83 532.031 4107.27 520.501 4107.27 503.041C4107.27 476.028 4090.79 462.521 4057.85 462.521C4054.23 462.521 4050.6 462.604 4046.98 462.769C4043.36 462.769 4039.73 462.851 4036.11 463.016ZM4617.96 465.486V633H4286.14V546.031H4333.83V326.88H4286.14V239.911H4617.96V396.307H4554.71L4530.99 326.88H4460.33V391.118H4523.58V455.851H4460.33V546.031H4530.99L4554.71 465.486H4617.96ZM4802.03 546.031V633H4628.58V546.031H4667.62L4735.32 326.88H4683.68V239.911H4928.53L5016.24 546.031H5055.03V633H4833.9V546.031H4866.02L4855.39 504.029H4766.2L4755.08 546.031H4802.03ZM4843.54 444.238L4814.88 323.915L4778.8 444.238H4843.54ZM5292.71 633H5087.39V546.031H5126.92V326.88H5087.39V239.911H5339.9C5380.75 239.911 5410.73 248.147 5429.83 264.618C5449.1 281.09 5458.74 308.432 5458.74 346.646C5458.74 372.176 5451.58 391.859 5437.25 405.695C5422.92 419.531 5402.57 428.838 5376.22 433.614C5399.94 437.403 5416.99 446.297 5427.36 460.298C5437.9 474.299 5443.17 491.758 5443.17 512.677V544.549H5498.27V633H5418.71C5401.75 633 5388.08 632.424 5377.7 631.271C5367.32 629.953 5359.09 626.988 5352.99 622.376C5347.06 617.599 5342.12 610.187 5338.17 600.14C5332.24 584.986 5329.28 559.702 5329.28 524.289C5329.28 504.029 5325.98 489.04 5319.39 479.322C5312.8 469.439 5300.78 464.498 5283.32 464.498H5253.42V546.031H5292.71V633ZM5253.42 326.88V408.413H5287.27C5305.23 408.413 5318.57 405.201 5327.3 398.777C5336.03 392.354 5340.39 381.071 5340.39 364.929C5340.39 353.069 5335.86 343.763 5326.8 337.01C5317.91 330.257 5306.38 326.88 5292.21 326.88H5253.42Z" fill="#476B47"/>
<path d="M662.984 246.352V729.511C662.984 730.01 662.283 730.21 662.083 729.71C656.278 714.115 651.574 700.419 647.371 684.724C644.768 675.226 643.367 669.828 643.067 668.528C639.164 653.833 636.361 639.037 634.76 624.041C633.159 609.246 631.757 597.349 630.556 588.452C630.556 588.452 628.555 575.556 624.651 549.863C622.85 537.967 618.947 521.371 616.544 510.475C614.443 500.977 612.341 494.08 609.539 484.582C609.238 483.583 609.639 482.383 610.439 481.783C623.651 471.986 633.159 460.889 639.164 445.494C647.07 425 646.57 402.606 637.462 382.212C632.358 370.916 624.551 361.918 614.843 353.821C607.537 347.722 599.53 343.324 590.723 340.625C571.306 334.526 549.688 336.926 532.073 346.823C529.671 348.222 527.569 349.622 525.868 351.121C523.365 353.421 518.261 356.52 515.058 360.219C513.457 362.018 511.956 363.618 510.554 365.117C509.854 365.817 508.853 366.017 507.952 365.617C496.743 360.719 485.934 356.22 475.525 352.021C467.418 348.722 459.511 346.323 451.805 344.723C437.593 341.924 423.381 339.625 408.768 338.425C388.251 336.826 367.033 336.726 345.014 338.325C327.499 339.525 310.685 342.224 294.571 346.423C289.267 347.822 283.362 349.822 276.856 352.521C272.252 354.42 266.447 356.62 259.341 359.319C251.935 362.118 244.829 365.517 238.624 368.016C238.123 368.216 237.423 368.016 237.122 367.617C235.921 366.017 234.42 364.318 232.719 362.718C228.215 358.619 222.81 354.52 216.605 350.422C213.502 348.422 210.4 346.823 207.097 345.623C186.68 338.125 160.858 338.625 142.142 351.321C138.038 354.121 135.836 355.62 135.536 355.82C123.526 364.518 114.919 375.514 109.614 388.91C104.51 401.807 102.708 415.103 104.109 428.599C104.81 434.897 106.511 441.795 109.214 449.193C115.719 466.688 128.13 478.684 143.643 488.781C143.843 488.881 143.943 489.181 143.943 489.481C141.441 500.278 138.138 510.875 135.936 521.072C132.133 538.467 129.131 555.462 126.729 572.057C124.827 585.253 122.925 599.549 120.924 615.044C120.223 620.842 119.823 623.841 119.823 623.841C114.618 657.632 106.211 690.822 94.6014 723.212C94.3011 724.112 93.9008 724.912 93.5004 725.712C93.4003 725.912 93 725.912 93 725.612V245.652C93 245.052 93 217.561 93 216.961V83.6998C93 83.3999 93.2002 83.1999 93.5004 83.1999H153.752C154.552 83.1999 155.253 83.7998 155.453 84.5995C156.554 90.2979 157.755 94.8965 159.156 98.3955C166.562 117.59 179.373 131.986 197.389 141.483C202.293 144.082 209.799 146.881 216.004 148.481C225.512 150.78 235.821 151.18 246.831 149.58C252.435 148.781 257.239 147.581 261.143 145.882C273.253 140.983 283.762 134.585 292.67 125.088C303.078 113.991 309.884 100.695 313.087 85.2993C313.287 84.2996 314.188 83.4999 315.289 83.3999C319.592 83.1 323.696 83 327.599 83C356.624 83.1 392.955 83.1999 436.592 83.2999C437.392 83.2999 438.093 83.7998 438.293 84.5995C440.395 91.0976 441.596 96.9959 444.599 103.594C459.511 136.384 495.842 155.379 530.972 149.281C544.784 146.881 559.496 139.983 570.005 130.786C583.917 118.69 592.724 103.294 596.427 84.7995C596.628 83.8997 597.428 83.1999 598.329 83.1999H661.683C662.283 83.1999 662.784 83.6998 662.784 84.2996V218.36C663.084 218.96 662.984 245.752 662.984 246.352Z" fill="#476B47"/>
<path d="M354.3 242.004C354.4 241.504 354.3 240.904 354 240.104C353.1 237.804 350.2 231.904 345.1 222.404C340 212.704 335.4 203.304 330 193.504C325.6 185.504 334.2 183.304 339.4 180.804C341.2 180.004 342.4 179.504 344.1 180.704C345.4 181.604 346.6 182.604 347.6 183.804C362.9 201.204 378.7 219.104 395.1 237.504C396.6 239.204 397.9 240.604 398.9 241.704C400.2 243.204 402.4 243.904 405.5 243.904C420.4 244.004 439.1 244.004 461.7 243.904C465.9 243.904 469.4 245.804 472.3 249.604C477.4 256.304 477.8 263.104 473.7 269.904C470.6 275.104 464.4 277.004 458.5 277.004C415.9 277.104 374.9 277.104 335.5 277.004C329.5 277.004 326 276.904 325 276.804C313.1 275.904 307 271.804 299.1 262.104C293.5 255.204 289.9 250.404 288.3 247.804C284.7 241.804 283 234.304 281.2 225.404C280.1 219.904 283.1 218.104 287.8 216.904C291.4 215.904 294 220.404 296 222.504C300.2 227.004 306 233.104 313.3 241.004C316 244.004 318.3 243.604 322.9 243.604C336.7 243.704 346.4 243.704 351.9 243.604C353 243.704 354 243.004 354.3 242.004Z" fill="#193818"/>
<path d="M562.3 254.704C562.9 261.104 558.2 266.904 551.8 267.504L514.8 271.204C508.4 271.804 502.6 267.104 502 260.704L501.9 259.704C501.3 253.304 506 247.504 512.4 246.904L549.4 243.204C555.8 242.604 561.6 247.304 562.2 253.704L562.3 254.704Z" fill="#193818"/>
<path d="M257.7 260.904C257.1 267.304 251.4 272.004 245 271.404L207.9 267.804C201.5 267.204 196.8 261.504 197.4 255.104L197.5 254.104C198.1 247.704 203.8 243.004 210.2 243.604L247.3 247.204C253.7 247.804 258.4 253.504 257.8 259.904L257.7 260.904Z" fill="#193818"/>
<path d="M574.7 441.304C574.5 441.504 574.1 441.504 573.9 441.304C565.6 429.704 556 419.104 545.1 409.504C544.9 409.304 544.9 409.004 545 408.804C551.3 401.704 556.3 394.604 566.1 393.104C583.6 390.504 595.4 406.104 589.5 422.504C588.6 425.004 586.3 428.304 582.7 432.404C578.2 437.304 575.6 440.304 574.7 441.304Z" fill="#203820"/>
<path d="M177.8 446.204C176.8 445.304 173.8 442.604 168.8 438.204C164.7 434.604 162.1 431.504 160.9 429.204C153.2 413.604 163.1 396.804 180.8 397.404C190.8 397.704 196.5 404.204 203.6 410.604C203.8 410.804 203.8 411.104 203.6 411.304C193.9 422.004 185.6 433.704 178.6 446.104C178.5 446.304 178.1 446.404 177.8 446.204Z" fill="#203820"/>
<path d="M308.4 506.804C308.5 520.104 297.7 531.004 284.4 531.004H279.6C266.3 531.104 255.4 520.304 255.4 507.004L255.3 495.704C255.2 482.404 266 471.504 279.3 471.504H284.1C297.4 471.404 308.3 482.204 308.3 495.504L308.4 506.804Z" fill="#193818"/>
<path d="M506.3 506.904C506.3 520.204 495.5 531.104 482.1 531.104H477.3C464 531.104 453.1 520.304 453.1 506.904V495.704C453.1 482.404 463.9 471.504 477.3 471.504H482.1C495.4 471.504 506.3 482.304 506.3 495.704V506.904Z" fill="#193818"/>
<path d="M367.4 649.204V612.404C367.4 612.204 367.2 611.904 367 611.904C350.4 609.004 334.5 600.904 327.2 585.004C320.6 570.604 320 552.204 332.5 540.104C338.9 533.904 346.8 530.804 356.3 530.804C357.3 530.804 372.4 530.804 401.7 530.804C410.9 530.804 418 531.804 424.8 536.804C434.3 543.804 438.9 553.204 438.6 565.004C438.1 591.904 418.7 608.404 393.3 612.004C393.1 612.004 393 612.204 393 612.404V649.404C393 649.604 393.2 649.804 393.4 649.704C412.5 647.004 430.3 637.904 444.7 625.104C448 622.104 451.4 617.604 453.9 615.304C459.7 610.204 465.5 609.704 471.6 614.004C478 618.504 477.5 628.504 472.3 634.004C455.1 651.804 435.5 665.404 411.9 672.104C381.2 680.704 348.6 676.004 321 659.504C312.2 654.204 303.7 647.704 295.6 639.904C290.6 635.104 287.6 631.704 286.8 629.904C284.3 624.504 285.6 617.504 290.6 613.804C295.2 610.504 300.2 610.204 305.5 613.204C306.1 613.504 306.6 613.904 307.1 614.404C308.3 615.604 309.9 617.204 311.7 619.304C315.1 623.104 318.2 626.104 321 628.304C334.5 639.304 349.8 646.404 366.8 649.604C367.2 649.604 367.4 649.404 367.4 649.204Z" fill="#193818"/>
<path d="M230.6 401.404C230.1 401.704 229.5 401.504 229.2 401.004C224.1 392.504 219.2 383.504 212.3 377.604C192.4 360.704 162.5 362.104 144.6 380.904C141.5 384.104 138.6 388.204 135.9 393.204C127.7 408.104 127.4 426.004 134.3 441.404C136.2 445.704 140.2 452.204 143.8 456.104C148.9 461.604 154.9 465.704 162 468.304C167.9 470.604 172.5 472.104 175.6 473.104C175.9 473.204 176 473.504 175.9 473.804C170.4 490.104 165.5 506.704 161.5 524.504C157.5 542.604 153.9 562.304 150.9 583.604C148.1 603.004 145.6 629.304 141.4 650.104C134.7 683.004 125.7 714.904 113.5 744.904C111.5 749.704 109.5 753.004 107.2 754.804C103.9 757.404 100 758.804 95.5 758.704C90.3 758.704 86.7 758.604 84.8 758.504C84.2 758.504 83.6 758.404 83 758.204C73 755.104 68 748.304 68 737.804C68 339.304 68 118.804 68 76.3037C68 70.3037 70.2 65.5037 74.7 61.7037C80.2 57.1037 85.1 57.2037 93.2 57.2037C103.8 57.2037 126.2 57.2037 160.4 57.2037C168.7 57.2037 174.8 61.0037 178.6 68.5037C180.5 72.3037 180.6 78.7037 181.5 82.7037C183.1 89.5037 185.9 95.8037 190 101.404C200 115.104 213.1 122.704 229.3 124.304C243.7 125.704 256.7 121.904 268.3 112.804C279.3 104.204 286 92.7037 288.4 78.3037C289.3 72.8037 290 69.6037 290.4 68.7037C293.9 61.0037 300 57.1037 308.9 57.1037C324.2 57.1037 366.5 57.1037 436.1 57.0037C444.3 57.0037 449.4 57.5037 451.6 58.4037C456.6 60.6037 460.3 64.6037 462.4 70.3037C462.6 70.7037 462.9 72.8037 463.4 76.6037C467.8 111.504 502.7 132.804 535.9 121.304C554.5 114.904 568.7 97.5037 571.5 78.1037C572 74.4037 572.3 71.0037 573.4 68.6037C575.6 63.9037 579 60.5037 583.7 58.4037C585.9 57.4037 590.1 57.0037 596.3 57.0037C637.8 57.1037 661.7 57.1037 668.1 57.0037C679.4 56.8037 688.3 64.7037 688.3 76.1037C688.3 135.004 688.2 353.804 688.3 732.604C688.3 739.004 688.1 742.904 687.8 744.104C686 750.504 681.1 755.604 674.8 757.704C670.5 759.104 665 758.504 658.2 758.504C645.6 758.504 642.2 748.404 638 737.604C629.9 716.504 623 694.204 617.4 670.504C614.1 656.804 611.6 643.004 609.8 627.604C606 594.504 602 564.404 595.7 533.304C591.2 511.404 585.3 490.004 577.9 469.304C577.8 469.104 577.9 468.904 578.1 468.904C588.3 464.704 598.2 460.604 605.2 452.304C619.1 435.904 623.2 415.904 615.6 395.404C614.9 393.604 613.3 390.504 610.8 386.204C602.1 371.404 586.2 362.904 569.6 362.504C553.5 362.104 536.1 370.504 527.7 384.304C525.7 387.504 522.9 392.304 519.3 398.704C519.1 399.104 518.6 399.204 518.2 399.004C509 394.004 499.9 389.404 490.7 385.404C489.2 384.704 487.5 383.604 486 382.804C470.1 375.304 453.5 370.104 436.2 367.104C394.6 360.104 349.7 360.004 307.7 368.904C301.4 370.204 295 372.104 288.5 374.504C278.3 378.304 271.6 380.804 268.4 382.104C266.2 383.004 264.1 384.504 262 385.304C251.1 390.204 240.7 395.404 230.6 401.404ZM662.7 729.304V246.104C662.7 245.604 662.2 245.204 661.7 245.404C649.2 249.604 639 252.504 625.2 255.404C622.7 255.904 620.7 255.904 619.2 255.404C609.2 252.104 607.3 239.604 615.7 233.404C616.9 232.504 619.8 231.604 624.3 230.604C637.3 227.804 649.9 224.104 662.1 219.404C662.6 219.204 662.9 218.704 662.9 218.204V84.1037C662.9 83.5037 662.4 83.0037 661.8 83.0037H598.5C597.5 83.0037 596.7 83.7037 596.5 84.6037C592.8 103.104 584 118.504 570.1 130.604C559.6 139.804 544.8 146.704 531.1 149.104C495.9 155.204 459.6 136.204 444.8 103.404C441.8 96.8037 440.6 90.9037 438.5 84.4037C438.3 83.6037 437.5 83.1037 436.8 83.1037C393.2 83.0037 356.9 82.9037 327.9 82.8037C324 82.8037 319.9 82.9037 315.6 83.2037C314.5 83.3037 313.6 84.0037 313.4 85.1037C310.2 100.504 303.4 113.804 293 124.904C284.1 134.404 273.6 140.704 261.5 145.704C257.5 147.304 252.7 148.504 247.1 149.404C236.1 151.004 225.8 150.604 216.3 148.304C210.1 146.804 202.6 143.904 197.7 141.404C179.7 131.904 166.9 117.604 159.5 98.3037C158.1 94.7037 156.9 90.1037 155.8 84.5037C155.6 83.7037 154.9 83.1037 154.1 83.1037H93.9C93.6 83.1037 93.4 83.3037 93.4 83.6037V216.904C93.4 217.504 93.8 218.004 94.3 218.304C99.8 220.604 104.9 222.504 109.7 224.104C114.5 225.704 123.7 228.104 137.2 231.404C139.8 232.004 141.5 232.604 142.4 233.104C147.2 235.704 149.9 239.504 149.4 245.404C148.7 253.104 141 257.304 133.9 255.704C120.4 252.704 107.3 249.004 94.7 244.704C94.1 244.504 93.4 245.004 93.4 245.604V725.404C93.4 725.704 93.8 725.804 93.9 725.504C94.3 724.704 94.7 723.904 95 723.004C106.6 690.604 115 657.404 120.2 623.604C120.2 623.604 120.6 620.604 121.3 614.804C123.3 599.404 125.2 585.004 127.1 571.804C129.5 555.204 132.6 538.204 136.3 520.804C138.5 510.504 141.9 499.904 144.3 489.204C144.4 488.904 144.3 488.704 144 488.504C128.4 478.304 116.1 466.404 109.6 448.904C106.8 441.504 105.1 434.604 104.5 428.304C103.1 414.704 104.9 401.504 110 388.604C115.3 375.204 123.9 364.204 135.9 355.504C136.2 355.304 138.4 353.804 142.5 351.004C161.1 338.404 187 337.804 207.4 345.304C210.7 346.504 213.8 348.104 216.9 350.104C223.1 354.204 228.5 358.304 233 362.404C234.8 364.004 236.3 365.604 237.5 367.304C237.8 367.804 238.5 367.904 239 367.704C245.1 365.204 252.3 361.804 259.7 359.004C266.8 356.304 272.7 354.104 277.2 352.204C283.7 349.504 289.6 347.504 294.9 346.104C311 341.904 327.9 339.204 345.3 338.004C367.3 336.504 388.5 336.504 409 338.104C423.5 339.304 437.8 341.604 452 344.404C459.7 345.904 467.6 348.404 475.7 351.704C486.1 355.904 496.9 360.504 508.1 365.304C509 365.704 510 365.504 510.7 364.804C512.1 363.404 513.6 361.804 515.2 359.904C518.4 356.304 523.5 353.104 526 350.804C527.7 349.304 529.7 347.904 532.2 346.504C549.9 336.604 571.4 334.204 590.8 340.304C599.6 343.104 607.6 347.504 614.9 353.504C624.5 361.504 632.4 370.504 637.5 381.904C646.6 402.204 647.1 424.704 639.2 445.204C633.2 460.604 623.7 471.704 610.5 481.504C609.6 482.104 609.3 483.304 609.6 484.304C612.4 493.804 614.5 500.604 616.6 510.204C619 521.104 622.9 537.704 624.7 549.604C628.6 575.304 630.6 588.204 630.6 588.204C631.8 597.104 633.2 609.004 634.8 623.804C636.4 638.804 639.1 653.704 643.1 668.304C643.4 669.504 644.9 674.904 647.4 684.504C651.6 700.204 656.2 713.804 662.1 729.504C662 730.004 662.7 729.804 662.7 729.304Z" fill="#193818"/>
</g>
<defs>
<clipPath id="clip0_1_2">
<rect width="5607" height="824" fill="white"/>
</clipPath>
</defs>
</svg>
